# xmcd CD database file
#
# Track frame offsets:
#	150
#	12682
#	27332
#	38952
#	53065
#	70100
#	86985
#	101820
#	115637
#	129640
#	148035
#	154542
#
# Disc length: 2333 seconds
#
# Revision: 2
# Processed by: cddbd v1.5.1PL0 Copyright (c) Steve Scherf et al.
# Submitted via: CDex 1.51
#
DISCID=a5091b0c
DTITLE=Nashville Super Pickers - Live From Austin City Limits
DYEAR=1979
DGENRE=Country
TTITLE0=Rollin' In My Sweet Baby's Arms
TTITLE1=Fiddlin' Around
TTITLE2=Canadian Sunset
TTITLE3=Wabash Cannonball
TTITLE4=Killer Joe
TTITLE5=Mansion On The Hill
TTITLE6=Long Tall Texan
TTITLE7=New Road Under My Wheels
TTITLE8=Sweet Dreams
TTITLE9=Shadow Of Your Smile
TTITLE10=What A Friend We Have In Jesus
TTITLE11=Orange Blossom Special
EXTD=YEAR: 1979
EXTT0=
EXTT1=
EXTT2=
EXTT3=
EXTT4=
EXTT5=
EXTT6=
EXTT7=
EXTT8=
EXTT9=
EXTT10=
EXTT11=
PLAYORDER=
